<svg xmlns="http://www.w3.org/2000/svg" xmlns:xlink="http://www.w3.org/1999/xlink" width="1084" zoomAndPan="magnify" viewBox="0 0 812.88 377.999986" height="504" preserveAspectRatio="xMidYMid meet" version="1.0"><defs><clipPath id="d1f8207ca5"><path d="M 11.816406 68.066406 L 216 68.066406 L 216 274.898438 L 11.816406 274.898438 Z M 11.816406 68.066406 " clip-rule="nonzero"/></clipPath><clipPath id="25743db4db"><path d="M 11.820312 68.066406 L 11.820312 172.765625 C 11.820312 229.074219 57.464844 274.71875 113.773438 274.71875 C 170.078125 274.71875 215.722656 229.074219 215.722656 172.765625 L 215.722656 70.421875 L 123.964844 70.421875 L 114.949219 110.941406 L 105.929688 69.242188 Z M 11.820312 68.066406 " clip-rule="nonzero"/></clipPath><clipPath id="857a6228d1"><path d="M 0.816406 0.0664062 L 204.726562 0.0664062 L 204.726562 206.789062 L 0.816406 206.789062 Z M 0.816406 0.0664062 " clip-rule="nonzero"/></clipPath><clipPath id="e41f7285ca"><path d="M 0.820312 0.0664062 L 0.820312 104.765625 C 0.820312 161.074219 46.464844 206.71875 102.773438 206.71875 C 159.078125 206.71875 204.722656 161.074219 204.722656 104.765625 L 204.722656 2.421875 L 112.964844 2.421875 L 103.949219 42.941406 L 94.929688 1.242188 Z M 0.820312 0.0664062 " clip-rule="nonzero"/></clipPath><clipPath id="6cbd66e111"><rect x="0" width="205" y="0" height="207"/></clipPath><clipPath id="a87b22b379"><path d="M 236.039062 69.042969 L 446.769531 69.042969 L 446.769531 278 L 236.039062 278 Z M 236.039062 69.042969 " clip-rule="nonzero"/></clipPath><clipPath id="dd498f48bc"><path d="M 236.457031 275.695312 L 236.457031 69.570312 C 236.457031 69.570312 324.347656 66.429688 341.613281 154.84375 C 341.613281 154.84375 358.355469 68.523438 446.769531 69.046875 L 446.769531 276.742188 L 353.648438 276.742188 L 344.230469 243.390625 L 337.425781 277.789062 Z M 236.457031 275.695312 " clip-rule="nonzero"/></clipPath><clipPath id="efa0d3b29e"><path d="M 0.363281 0.0429688 L 210.769531 0.0429688 L 210.769531 208.90625 L 0.363281 208.90625 Z M 0.363281 0.0429688 " clip-rule="nonzero"/></clipPath><clipPath id="5f5b07c4e2"><path d="M 0.457031 206.695312 L 0.457031 0.570312 C 0.457031 0.570312 88.347656 -2.570312 105.613281 85.84375 C 105.613281 85.84375 122.355469 -0.476562 210.769531 0.046875 L 210.769531 207.742188 L 117.648438 207.742188 L 108.230469 174.390625 L 101.425781 208.789062 Z M 0.457031 206.695312 " clip-rule="nonzero"/></clipPath><clipPath id="bc4ed12947"><rect x="0" width="211" y="0" height="209"/></clipPath><clipPath id="bb6cbace90"><path d="M 470 66.539062 L 712.996094 66.539062 L 712.996094 277.683594 L 470 277.683594 Z M 470 66.539062 " clip-rule="nonzero"/></clipPath><clipPath id="c00eecf779"><path d="M 470.074219 276.640625 L 588.773438 66.957031 L 712.699219 277.683594 L 598.707031 277.683594 L 588.25 237.421875 L 578.835938 277.164062 Z M 470.074219 276.640625 " clip-rule="nonzero"/></clipPath><clipPath id="2026460acb"><path d="M 0 0.738281 L 242.933594 0.738281 L 242.933594 211.683594 L 0 211.683594 Z M 0 0.738281 " clip-rule="nonzero"/></clipPath><clipPath id="2dcd9444b8"><path d="M 0.0742188 210.640625 L 118.773438 0.957031 L 242.699219 211.683594 L 128.707031 211.683594 L 118.25 171.421875 L 108.835938 211.164062 Z M 0.0742188 210.640625 " clip-rule="nonzero"/></clipPath><clipPath id="9d18337e58"><rect x="0" width="243" y="0" height="212"/></clipPath><clipPath id="18bcefcbd4"><path d="M 733.296875 71.476562 L 800.734375 71.476562 L 800.734375 277.707031 L 733.296875 277.707031 Z M 733.296875 71.476562 " clip-rule="nonzero"/></clipPath><clipPath id="5452340f00"><path d="M 0.296875 0.476562 L 67.734375 0.476562 L 67.734375 206.707031 L 0.296875 206.707031 Z M 0.296875 0.476562 " clip-rule="nonzero"/></clipPath><clipPath id="836798f58c"><rect x="0" width="68" y="0" height="207"/></clipPath></defs><g clip-path="url(#d1f8207ca5)"><g clip-path="url(#25743db4db)"><g transform="matrix(1, 0, 0, 1, 11, 68)"><g clip-path="url(#6cbd66e111)"><g clip-path="url(#857a6228d1)"><g clip-path="url(#e41f7285ca)"><path fill="#fff8eb" d="M 0.816406 0.0664062 L 204.722656 0.0664062 L 204.722656 206.898438 L 0.816406 206.898438 Z M 0.816406 0.0664062 " fill-opacity="1" fill-rule="nonzero"/></g></g></g></g></g></g><g clip-path="url(#a87b22b379)"><g clip-path="url(#dd498f48bc)"><g transform="matrix(1, 0, 0, 1, 236, 69)"><g clip-path="url(#bc4ed12947)"><g clip-path="url(#efa0d3b29e)"><g clip-path="url(#5f5b07c4e2)"><path fill="#fff8eb" d="M 0.457031 0.0429688 L 210.769531 0.0429688 L 210.769531 208.683594 L 0.457031 208.683594 Z M 0.457031 0.0429688 " fill-opacity="1" fill-rule="nonzero"/></g></g></g></g></g></g><g clip-path="url(#bb6cbace90)"><g clip-path="url(#c00eecf779)"><g transform="matrix(1, 0, 0, 1, 470, 66)"><g clip-path="url(#9d18337e58)"><g clip-path="url(#2026460acb)"><g clip-path="url(#2dcd9444b8)"><path fill="#fff8eb" d="M 0.0742188 0.957031 L 242.578125 0.957031 L 242.578125 211.683594 L 0.0742188 211.683594 Z M 0.0742188 0.957031 " fill-opacity="1" fill-rule="nonzero"/></g></g></g></g></g></g><g clip-path="url(#18bcefcbd4)"><g transform="matrix(1, 0, 0, 1, 733, 71)"><g clip-path="url(#836798f58c)"><g clip-path="url(#5452340f00)"><path fill="#fff8eb" d="M 0.296875 0.476562 L 67.734375 0.476562 L 67.734375 206.742188 L 0.296875 206.742188 Z M 0.296875 0.476562 " fill-opacity="1" fill-rule="nonzero"/></g></g></g></g></svg>