<svg xmlns="http://www.w3.org/2000/svg" xmlns:xlink="http://www.w3.org/1999/xlink" width="512" height="512" viewBox="32 196 1080 1096" preserveAspectRatio="xMidYMid meet" version="1.0"><defs><clipPath id="f432c72655"><path d="M 32.332031 196.988281 L 1113 196.988281 L 1113 1292 L 32.332031 1292 Z M 32.332031 196.988281 " clip-rule="nonzero"/></clipPath><clipPath id="d925e79fd5"><path d="M 32.335938 196.988281 L 32.335938 751.457031 C 32.335938 1049.664062 274.066406 1291.398438 572.273438 1291.398438 C 870.46875 1291.398438 1112.199219 1049.664062 1112.199219 751.457031 L 1112.199219 209.453125 L 626.257812 209.453125 L 578.496094 424.042969 L 530.738281 203.214844 Z M 32.335938 196.988281 " clip-rule="nonzero"/></clipPath><clipPath id="d37ad6cc6b"><path d="M 0.332031 0.988281 L 1080.398438 0.988281 L 1080.398438 1095.441406 L 0.332031 1095.441406 Z M 0.332031 0.988281 " clip-rule="nonzero"/></clipPath><clipPath id="e3278771f9"><path d="M 0.335938 0.988281 L 0.335938 555.457031 C 0.335938 853.664062 242.066406 1095.398438 540.273438 1095.398438 C 838.46875 1095.398438 1080.199219 853.664062 1080.199219 555.457031 L 1080.199219 13.453125 L 594.257812 13.453125 L 546.496094 228.042969 L 498.738281 7.214844 Z M 0.335938 0.988281 " clip-rule="nonzero"/></clipPath><clipPath id="c8003119b4"><rect x="0" width="1081" y="0" height="1096"/></clipPath></defs><g clip-path="url(#f432c72655)"><g clip-path="url(#d925e79fd5)"><g transform="matrix(1, 0, 0, 1, 32, 196)"><g clip-path="url(#c8003119b4)"><g clip-path="url(#d37ad6cc6b)"><g clip-path="url(#e3278771f9)"><path fill="#5e3929" d="M 0.332031 0.988281 L 1080.199219 0.988281 L 1080.199219 1096.347656 L 0.332031 1096.347656 Z M 0.332031 0.988281 " fill-opacity="1" fill-rule="nonzero"/></g></g></g></g></g></g></svg>